<svg id="Layer_1" data-name="Layer 1" xmlns="http://www.w3.org/2000/svg" viewBox="0 0 442.05 403.19"><defs><style>.cls-1{fill:#b17f4a;}.cls-2{fill:#936037;}.cls-3{fill:none;stroke:#b17f4a;stroke-miterlimit:10;stroke-width:0.25px;}.cls-4{fill:#7d4e24;}</style></defs><path id="tour" class="cls-1" d="M477,457.6l-16.37-374h-131l-4.53,103.44H186.91L182.38,83.63h-131L35,457.6H477ZM324,212.06l-4,91.23H192l-4-91.23ZM303.68,456.79H208.33V384.55a3.54,3.54,0,0,1,1.22-2.71l4-2.43a2.18,2.18,0,0,0,.12-3.16l-4.06-3.61a3.61,3.61,0,0,1-1-3.16c1.33-7.43,18.12-33.82,47.4-34.16,29.29.34,46.07,26.73,47.4,34.16a3.59,3.59,0,0,1-1,3.16l-4,3.61a2.15,2.15,0,0,0,.11,3.16l4,2.43a3.55,3.55,0,0,1,1.23,2.71Z" transform="translate(-34.98 -54.4)"/><polygon class="cls-1" points="86.76 19.48 86.76 9.74 77.01 9.74 77.01 19.48 67.27 19.48 67.27 29.23 77.01 29.23 86.76 29.23 96.5 29.23 96.5 19.48 86.76 19.48"/><polygon class="cls-1" points="35.88 19.48 35.88 9.74 26.13 9.74 16.39 0 16.39 9.74 16.39 29.23 26.13 29.23 35.88 29.23 45.62 29.23 45.62 19.48 35.88 19.48"/><polygon class="cls-1" points="127.89 19.48 127.89 9.74 137.63 9.74 147.37 0 147.37 9.74 147.37 29.23 137.63 29.23 127.89 29.23 118.14 29.23 118.14 19.48 127.89 19.48"/><polygon class="cls-1" points="365.03 19.48 365.03 9.74 355.29 9.74 355.29 19.48 345.55 19.48 345.55 29.23 355.29 29.23 365.03 29.23 374.77 29.23 374.77 19.48 365.03 19.48"/><polygon class="cls-1" points="314.15 19.48 314.15 9.74 304.41 9.74 294.67 0 294.67 9.74 294.67 29.23 304.41 29.23 314.15 29.23 323.89 29.23 323.89 19.48 314.15 19.48"/><polygon class="cls-1" points="406.16 19.48 406.16 9.74 415.9 9.74 425.65 0 425.65 9.74 425.65 29.23 415.9 29.23 406.16 29.23 396.42 29.23 396.42 19.48 406.16 19.48"/><g id="window_" data-name="window +"><rect class="cls-2" x="71.95" y="103.32" width="19.88" height="29.35"/><line class="cls-3" x1="81.89" y1="103.32" x2="81.89" y2="132.67"/><line class="cls-3" x1="91.82" y1="118" x2="71.95" y2="118"/><rect class="cls-2" x="71.95" y="201.54" width="19.88" height="29.35"/><line class="cls-3" x1="81.89" y1="201.54" x2="81.89" y2="230.88"/><line class="cls-3" x1="91.82" y1="216.21" x2="71.95" y2="216.21"/><rect class="cls-2" x="71.95" y="299.75" width="19.88" height="29.35"/><line class="cls-3" x1="81.89" y1="299.75" x2="81.89" y2="329.1"/><line class="cls-3" x1="91.82" y1="314.43" x2="71.95" y2="314.43"/><rect class="cls-2" x="350.22" y="299.75" width="19.88" height="29.35"/><line class="cls-3" x1="360.16" y1="299.75" x2="360.16" y2="329.1"/><line class="cls-3" x1="370.1" y1="314.43" x2="350.22" y2="314.43"/><rect class="cls-2" x="350.22" y="201.54" width="19.88" height="29.35"/><line class="cls-3" x1="360.16" y1="201.54" x2="360.16" y2="230.88"/><line class="cls-3" x1="370.1" y1="216.21" x2="350.22" y2="216.21"/><rect class="cls-2" x="350.22" y="103.32" width="19.88" height="29.35"/><line class="cls-3" x1="360.16" y1="103.32" x2="360.16" y2="132.67"/><line class="cls-3" x1="370.1" y1="118" x2="350.22" y2="118"/></g><path class="cls-4" d="M185.87,178.44H308.18c5.65,0,11.35.25,17,0h.23c1.7,0,2.18-2.26.22-2.26H203.32c-5.65,0-11.36-.25-17,0h-.23c-1.7,0-2.19,2.26-.22,2.26Z" transform="translate(-34.98 -54.4)"/><path class="cls-4" d="M185.87,167H308.73c5.63,0,11.32.25,16.95,0h.23c1.7,0,2.19-2.25.22-2.25H203.27c-5.63,0-11.32-.25-17,0h-.23c-1.7,0-2.19,2.25-.22,2.25Z" transform="translate(-34.98 -54.4)"/><path class="cls-4" d="M191.45,294.66h112.9c5.2,0,10.45.24,15.64,0a1.61,1.61,0,0,1,.22,0c1.7,0,2.18-2.25.22-2.25H207.53c-5.19,0-10.45-.24-15.63,0h-.22c-1.7,0-2.19,2.25-.23,2.25Z" transform="translate(-34.98 -54.4)"/><path class="cls-4" d="M191,283.2H304.84c5.23,0,10.53.24,15.76,0h.22c1.71,0,2.19-2.25.23-2.25H207.16c-5.23,0-10.53-.25-15.76,0h-.22c-1.71,0-2.19,2.25-.23,2.25Z" transform="translate(-34.98 -54.4)"/></svg>